<?xml version="1.0" standalone="no"?>
<!DOCTYPE svg PUBLIC "-//W3C//DTD SVG 20010904//EN"
 "http://www.w3.org/TR/2001/REC-SVG-20010904/DTD/svg10.dtd">
<svg version="1.0" xmlns="http://www.w3.org/2000/svg"
 width="2048.000000pt" height="2048.000000pt" viewBox="0 0 2048.000000 2048.000000"
 preserveAspectRatio="xMidYMid meet">
<metadata>
Created by potrace 1.11, written by Peter Selinger 2001-2013
</metadata>
<g transform="translate(0.000000,2048.000000) scale(0.100000,-0.100000)"
fill="#000000" stroke="none">
<path d="M12976 14738 c-27 -26 -34 -28 -117 -28 -48 0 -91 -4 -94 -10 -3 -5
-24 -10 -46 -10 -21 0 -39 -4 -39 -10 0 -5 -10 -10 -23 -10 -13 0 -33 -9 -46
-21 -18 -17 -25 -18 -36 -9 -12 10 -15 10 -15 1 0 -7 -4 -10 -9 -7 -5 3 -29
-14 -54 -39 -39 -38 -52 -45 -86 -45 -22 0 -46 -6 -53 -13 -7 -7 -27 -22 -45
-32 -18 -10 -30 -22 -28 -26 3 -3 -5 -6 -18 -6 -40 0 -217 -139 -200 -157 4
-3 1 -6 -6 -6 -15 0 -71 -54 -71 -68 0 -5 -7 -13 -16 -16 -9 -4 -14 -9 -11
-12 3 -4 -9 -21 -27 -39 -18 -17 -41 -46 -52 -63 -10 -18 -22 -32 -26 -32 -4
0 -8 -7 -8 -16 0 -8 -4 -12 -10 -9 -5 3 -10 0 -10 -8 0 -8 -7 -18 -16 -21 -9
-4 -14 -9 -10 -13 3 -3 -1 -15 -11 -25 -9 -10 -12 -18 -8 -18 4 0 -1 -8 -11
-17 -11 -10 -31 -34 -44 -53 -13 -19 -32 -43 -42 -53 -10 -10 -18 -24 -18 -32
0 -8 -4 -15 -10 -15 -5 0 -10 -7 -10 -15 0 -8 -6 -15 -14 -15 -8 0 -16 -6 -19
-12 -3 -10 -7 -10 -17 -1 -13 12 -46 1 -61 -21 -4 -5 -11 -6 -17 -3 -9 6 -107
-57 -139 -89 -8 -8 -22 -14 -31 -14 -10 0 -32 -13 -50 -30 -25 -23 -43 -30
-72 -30 -21 0 -42 -5 -45 -11 -4 -6 -13 -8 -20 -5 -7 2 -16 -2 -19 -10 -7 -17
-91 -18 -113 -1 -9 6 -13 6 -13 -2 0 -7 -20 -11 -50 -11 -27 0 -50 -4 -50 -10
0 -13 -217 -14 -222 -1 -1 5 -21 10 -43 12 -22 1 -57 11 -77 21 -41 20 -198
26 -198 8 0 -5 -6 -10 -13 -10 -7 0 -28 -13 -46 -29 -28 -25 -40 -29 -97 -29
-39 0 -64 4 -64 11 0 7 -4 7 -12 -1 -8 -8 -59 -12 -165 -12 l-152 0 -33 -32
c-18 -18 -34 -31 -35 -30 -13 10 -42 -5 -78 -42 -24 -25 -46 -42 -49 -39 -3 4
-6 1 -6 -6 0 -13 -81 -13 -90 0 -3 4 -48 9 -100 10 -57 1 -98 6 -102 13 -5 7
-11 8 -15 1 -5 -5 -19 -12 -33 -13 -14 -2 -29 -7 -35 -12 -14 -10 -77 -11 -90
0 -6 5 -63 10 -127 11 -100 1 -118 4 -132 20 -9 10 -27 19 -41 19 -34 0 -37 1
-60 22 -18 17 -35 18 -200 14 -99 -2 -218 -10 -265 -16 -47 -6 -181 -14 -298
-16 -203 -5 -213 -4 -234 16 -13 11 -35 20 -54 20 -18 0 -36 5 -39 10 -3 6
-26 10 -51 10 -24 0 -44 5 -44 10 0 6 -11 10 -25 10 -14 0 -35 9 -47 20 -20
18 -37 20 -175 21 -84 1 -156 2 -160 3 -5 1 -26 18 -48 39 -21 20 -49 37 -61
37 -13 0 -26 5 -29 10 -3 6 -15 10 -26 10 -10 0 -28 5 -39 10 -11 6 -29 15
-40 20 -11 6 -41 10 -68 10 -36 0 -60 7 -95 29 -38 25 -58 30 -114 32 l-67 2
-158 159 c-87 87 -163 158 -168 158 -6 0 -37 27 -70 60 -33 33 -64 60 -70 60
-6 0 -8 5 -5 10 3 6 0 10 -8 10 -8 0 -34 18 -58 40 -24 22 -52 43 -61 46 -10
3 -18 9 -18 14 0 8 -11 13 -45 22 -5 2 -19 13 -31 25 -12 12 -40 26 -61 32
-22 6 -48 20 -59 32 -25 28 -111 69 -145 69 -15 0 -31 5 -34 10 -3 6 -14 10
-25 10 -10 0 -44 14 -75 30 -35 18 -72 30 -95 30 -22 0 -42 5 -45 10 -3 6 -28
10 -56 10 -38 0 -53 -5 -67 -21 -22 -27 -85 -59 -115 -59 -13 0 -36 -12 -51
-27 -26 -25 -37 -31 -78 -35 -9 -1 -15 -4 -13 -6 2 -2 -7 -15 -21 -29 -45 -45
-104 -143 -105 -177 0 -11 -3 -15 -6 -8 -2 6 -10 12 -16 12 -5 0 -8 -3 -4 -6
3 -4 -1 -13 -10 -22 -12 -12 -14 -26 -8 -61 9 -56 9 -62 -4 -133 -7 -37 -8
-65 -1 -82 5 -14 7 -26 3 -26 -4 0 2 -7 13 -15 19 -14 19 -14 -3 -15 -12 0
-23 -6 -26 -12 -4 -14 20 -58 39 -70 6 -4 10 -23 8 -43 -1 -19 2 -35 8 -35 5
0 6 -9 3 -20 -4 -11 -2 -20 4 -20 6 0 11 -9 11 -19 0 -11 5 -21 11 -23 9 -3 9
-10 0 -27 -11 -19 -10 -26 4 -41 10 -11 15 -26 12 -35 -4 -8 -3 -15 2 -15 4 0
9 -28 9 -62 1 -36 10 -87 22 -118 11 -30 20 -64 20 -75 0 -12 9 -38 20 -60 11
-22 20 -47 20 -57 0 -9 14 -44 30 -76 35 -68 35 -72 15 -72 -8 0 -15 -4 -15
-10 0 -5 5 -10 10 -10 22 0 62 -51 57 -72 -6 -21 11 -68 24 -68 4 0 9 -15 12
-32 13 -77 25 -117 40 -132 9 -9 19 -25 22 -36 3 -11 15 -20 26 -20 16 0 19
-7 19 -45 0 -43 26 -115 41 -115 12 0 64 -54 61 -63 -1 -5 2 -6 8 -2 16 10 50
-4 50 -21 0 -9 10 -14 28 -14 35 0 45 -9 31 -27 -9 -9 -8 -13 0 -13 7 0 6 -9
-5 -25 -9 -14 -20 -23 -24 -20 -5 3 -20 -5 -34 -18 -33 -31 -37 -103 -7 -128
14 -13 19 -32 20 -99 2 -66 6 -86 22 -103 13 -14 19 -35 19 -67 0 -48 21 -90
46 -90 8 0 14 -7 14 -16 0 -8 5 -12 11 -9 5 4 19 -3 30 -16 17 -20 19 -38 19
-168 0 -133 -6 -174 -24 -172 -19 3 -25 -1 -32 -21 -3 -13 -13 -31 -22 -40 -8
-10 -11 -18 -7 -18 4 0 0 -9 -10 -20 -10 -11 -14 -20 -10 -20 5 0 4 -5 -3 -12
-7 -7 -12 -42 -12 -86 0 -40 -4 -81 -9 -90 -5 -9 -11 -35 -12 -57 -3 -32 -14
-50 -51 -88 l-48 -49 0 -158 c0 -142 -2 -160 -20 -183 -11 -14 -20 -34 -20
-45 0 -12 -4 -24 -10 -27 -5 -3 -10 -14 -10 -24 0 -10 -6 -24 -14 -30 -8 -7
-17 -25 -21 -39 -3 -15 -19 -43 -35 -62 -17 -19 -30 -41 -30 -47 0 -24 -1 -28
-17 -45 -8 -9 -26 -38 -39 -64 l-24 -47 0 -533 c0 -344 4 -535 10 -539 6 -3
10 -21 10 -40 0 -19 5 -37 10 -40 6 -3 10 -15 10 -27 0 -11 9 -31 20 -45 11
-14 20 -41 20 -60 0 -20 4 -32 10 -28 6 3 10 2 10 -4 0 -6 13 -24 30 -41 29
-29 30 -34 30 -120 0 -49 5 -92 10 -95 6 -3 10 -17 10 -30 0 -13 5 -27 10 -30
6 -3 10 -32 10 -64 0 -32 6 -69 13 -82 25 -47 70 -114 78 -117 5 -2 9 -28 9
-57 0 -30 5 -57 10 -60 6 -3 10 -17 10 -30 0 -13 8 -31 17 -41 9 -9 19 -26 20
-37 2 -12 12 -36 23 -55 11 -18 20 -42 20 -52 0 -23 156 -182 201 -204 18 -9
48 -16 68 -16 38 0 63 -20 69 -55 2 -11 13 -32 23 -46 10 -15 19 -38 19 -52 0
-27 42 -74 78 -88 14 -6 22 -17 22 -33 0 -14 5 -28 10 -31 6 -3 10 -21 10 -40
0 -19 5 -37 10 -40 6 -3 10 -15 10 -26 0 -10 5 -19 10 -19 6 0 10 -13 10 -30
0 -16 5 -30 10 -30 6 0 10 -16 10 -36 0 -25 8 -43 28 -62 15 -15 34 -39 41
-54 8 -15 17 -25 22 -23 4 3 13 -1 21 -8 7 -8 19 -12 26 -9 6 2 12 -1 12 -7 0
-6 7 -11 16 -11 8 0 12 -4 9 -10 -3 -6 5 -10 19 -10 14 0 27 4 30 8 14 23 116
5 116 -21 0 -6 17 -26 39 -46 21 -20 41 -46 45 -58 9 -28 65 -69 88 -65 10 2
18 -2 18 -7 0 -6 10 -11 23 -11 13 0 39 -13 57 -30 18 -16 38 -30 42 -30 22 0
68 -66 68 -96 0 -34 13 -44 55 -44 13 0 27 -5 30 -10 3 -6 13 -10 21 -10 8 0
27 -11 41 -24 15 -14 30 -23 34 -21 4 3 9 -2 13 -10 3 -8 1 -15 -5 -15 -6 0
-4 -7 5 -15 8 -9 33 -15 59 -15 47 0 87 -24 87 -53 0 -9 5 -19 11 -23 8 -4 7
-9 -2 -15 -12 -7 -12 -9 0 -9 8 0 11 -7 8 -20 -3 -13 0 -20 8 -20 7 0 15 -6
18 -12 3 -10 9 -10 26 0 30 17 87 15 111 -6 12 -10 44 -19 78 -22 l57 -5 3
-50 c2 -27 7 -54 13 -59 6 -6 9 -6 9 1 0 7 20 11 49 11 41 1 54 -4 80 -29 17
-16 38 -29 47 -29 11 0 15 -6 12 -18 -8 -31 17 -42 96 -42 49 0 79 -5 88 -13
7 -8 19 -12 26 -9 6 2 12 0 12 -6 0 -5 19 -14 43 -21 23 -7 56 -16 72 -21 47
-14 85 -22 145 -29 30 -3 61 -10 68 -14 7 -5 12 -4 12 3 0 7 39 10 123 8 l122
-3 3 -27 c3 -27 5 -28 70 -29 70 -1 77 -1 130 -18 17 -5 32 -8 32 -5 0 2 14
-3 31 -11 17 -9 33 -14 37 -11 3 3 10 1 17 -4 6 -5 35 -10 63 -11 29 -1 52 -6
52 -11 0 -11 87 -10 94 1 8 12 206 12 206 0 0 -5 32 -9 71 -9 54 0 77 5 98 19
23 17 47 19 186 20 107 1 162 6 166 13 6 9 11 8 22 -1 11 -8 17 -9 22 -1 4 7
13 4 25 -10 22 -25 36 -26 43 0 3 11 13 20 22 20 10 0 35 18 56 40 22 22 41
35 45 29 4 -6 13 -4 24 6 11 10 36 19 56 22 20 3 46 13 57 23 13 13 33 18 67
17 50 -1 85 17 73 37 -3 6 -3 8 2 4 4 -4 14 -1 22 7 8 8 25 15 39 15 13 0 24
4 24 8 0 5 23 9 52 11 28 1 60 7 70 12 10 5 18 6 19 2 1 -4 4 3 8 17 5 19 14
26 36 28 65 5 95 13 92 25 -1 6 10 12 25 12 31 1 59 31 50 54 -3 9 -1 12 6 7
7 -4 12 -3 12 3 0 5 14 12 30 16 17 4 53 29 81 57 28 27 53 47 56 45 3 -3 16
5 30 19 13 13 31 24 39 24 19 0 90 -36 99 -50 15 -24 25 -6 25 44 0 40 4 55
16 60 9 3 12 11 8 18 -5 8 -2 9 9 5 11 -4 17 -1 17 9 0 8 4 13 8 10 5 -3 21 2
36 10 16 7 35 14 42 14 8 0 14 4 14 8 0 12 61 14 76 1 19 -16 52 -2 56 24 3
19 11 23 56 27 29 3 56 11 60 17 20 32 166 55 198 31 7 -5 23 -11 35 -13 13
-3 25 -9 27 -14 2 -6 10 -7 18 -4 8 3 14 0 14 -6 0 -6 9 -11 20 -11 11 0 20
-4 20 -10 0 -11 49 -14 74 -4 9 3 16 15 16 25 0 10 1 19 3 20 36 9 101 9 107
0 9 -16 93 -17 98 -2 2 6 8 9 13 5 5 -3 9 2 9 10 0 10 9 16 23 16 26 0 67 31
71 53 1 8 15 26 30 40 22 21 39 27 72 27 23 0 46 -4 49 -10 3 -5 21 -10 39
-10 19 0 50 -7 70 -15 20 -8 36 -12 36 -8 0 4 5 2 12 -5 7 -7 17 -12 23 -12 5
0 3 5 -5 10 -13 9 -13 11 -1 19 12 8 12 12 2 25 -11 14 -11 16 4 16 10 0 16 3
12 6 -3 4 1 14 10 23 17 16 20 17 48 20 8 0 28 14 45 31 17 16 37 30 45 30 8
0 15 3 15 8 0 4 11 20 25 35 14 15 23 27 20 27 -3 0 0 6 7 14 7 8 15 14 18 14
3 0 40 0 83 1 l77 1 0 45 c0 25 5 45 10 45 13 0 40 59 34 74 -6 15 44 36 85
36 31 0 33 1 17 13 -20 14 -32 82 -22 121 3 14 20 31 41 40 19 9 35 24 35 32
0 8 5 12 10 9 6 -3 11 -1 11 4 1 6 2 17 3 24 1 12 5 13 51 16 18 1 25 7 25 21
0 12 14 34 31 51 17 17 32 36 33 43 1 7 13 24 28 37 14 13 27 32 29 42 2 10 8
18 13 17 5 -1 14 9 20 22 10 19 9 25 -3 35 -13 9 -14 14 -3 24 6 7 12 21 12
30 0 9 7 20 16 23 8 3 12 11 8 17 -3 6 -3 14 2 18 5 3 14 15 20 26 7 12 22 20
40 21 46 2 50 3 72 23 15 12 22 30 22 54 0 19 4 37 9 39 5 2 11 10 13 18 2 8
11 22 20 31 9 8 18 32 20 52 1 20 5 37 9 37 11 0 21 60 26 160 2 52 8 97 13
100 4 3 10 16 11 30 2 13 25 45 52 71 35 36 47 55 47 78 0 16 4 32 9 35 8 6
12 24 27 129 3 23 10 46 15 52 5 5 9 31 9 57 0 26 5 48 10 48 6 0 10 28 10 63
0 51 -4 68 -20 82 -15 14 -20 31 -20 69 0 43 5 56 30 83 l30 32 0 330 c0 209
-4 332 -10 336 -6 4 -10 55 -10 120 0 65 -4 116 -10 120 -5 3 -10 33 -10 66 0
46 -5 65 -20 81 -11 12 -20 28 -20 35 0 7 -5 13 -11 13 -6 0 -9 6 -6 14 3 8
-1 20 -9 26 -8 7 -14 27 -14 46 0 18 -4 36 -10 39 -5 3 -10 22 -10 41 0 19 -4
34 -10 34 -5 0 -10 8 -10 18 0 10 -16 34 -35 52 -38 37 -65 82 -65 110 0 9 -9
25 -20 35 -19 17 -20 31 -20 239 -1 178 -3 225 -15 240 -8 11 -15 16 -15 12 0
-4 -12 6 -26 23 -14 17 -33 31 -41 31 -19 0 -42 29 -43 53 0 10 -13 32 -30 50
-23 25 -30 41 -30 74 0 23 5 45 10 48 19 12 12 104 -10 127 -12 13 -20 36 -20
55 0 21 -5 33 -12 32 -7 -1 -25 -1 -40 0 -24 1 -28 5 -28 31 0 17 -4 30 -10
30 -13 0 -14 472 -1 486 6 5 11 45 12 89 2 73 4 82 31 108 19 19 28 40 29 63
2 46 3 51 12 60 4 4 7 29 7 55 l0 48 -37 3 -38 3 -3 93 c-2 77 0 92 13 92 8 0
14 3 13 8 -1 4 10 20 25 36 24 25 27 37 27 92 0 36 -4 64 -10 64 -13 0 -13
123 -1 164 18 59 31 111 34 134 2 12 9 28 15 34 7 7 12 17 12 24 0 6 7 17 15
24 17 15 22 165 5 175 -6 3 -10 51 -10 109 0 56 -3 106 -7 110 -4 3 -8 17 -10
29 -1 12 -8 38 -14 58 -6 20 -8 62 -5 100 3 35 10 102 14 149 5 47 11 92 15
100 5 10 0 24 -13 38 -11 12 -20 24 -20 27 1 38 -3 55 -20 73 -11 12 -20 31
-20 42 0 46 -31 118 -53 124 -12 3 -26 15 -32 28 -8 18 -19 24 -52 26 -43 3
-43 3 -43 42 0 35 -5 42 -46 69 -25 17 -49 31 -55 31 -5 0 -9 5 -9 10 0 6 -11
10 -24 10 -13 0 -26 4 -28 8 -1 5 -16 -4 -32 -20z m-7726 -2029 c0 -6 -4 -7
-10 -4 -5 3 -10 11 -10 16 0 6 5 7 10 4 6 -3 10 -11 10 -16z m152 -303 c7 4 8
2 4 -4 -4 -7 -1 -12 6 -13 11 0 11 -2 0 -6 -14 -5 -52 32 -52 51 0 6 7 0 16
-12 8 -12 20 -19 26 -16z m62 -51 c5 -13 2 -14 -17 -4 -32 17 -33 19 -10 19
12 0 23 -7 27 -15z"/>
</g>
</svg>
